<svg width="15" height="15" viewBox="0 0 15 15" fill="none" xmlns="http://www.w3.org/2000/svg">
<path opacity="0.4" d="M9.94425 1.66669H5.05591C2.93258 1.66669 1.66675 2.93252 1.66675 5.05585V9.93835C1.66675 12.0675 2.93258 13.3334 5.05591 13.3334H9.93841C12.0617 13.3334 13.3276 12.0675 13.3276 9.94419V5.05585C13.3334 2.93252 12.0676 1.66669 9.94425 1.66669Z" fill="#FE3766"/>
<path d="M10.2698 4.58331H7.45228C7.21312 4.58331 7.01478 4.78165 7.01478 5.02081C7.01478 5.25998 7.21312 5.45831 7.45228 5.45831H9.21395L4.71062 9.96165C4.54145 10.1308 4.54145 10.4108 4.71062 10.58C4.79812 10.6675 4.90895 10.7083 5.01978 10.7083C5.13062 10.7083 5.24145 10.6675 5.32895 10.58L9.83228 6.07665V7.83831C9.83228 8.07748 10.0306 8.27581 10.2698 8.27581C10.5089 8.27581 10.7073 8.07748 10.7073 7.83831V5.02081C10.7073 4.78165 10.5089 4.58331 10.2698 4.58331Z" fill="#FE3766"/>
</svg>
