<svg width="14" height="15" viewBox="0 0 14 15" fill="none" xmlns="http://www.w3.org/2000/svg">
<path opacity="0.4" d="M9.44425 1.66669H4.55591C2.43258 1.66669 1.16675 2.93252 1.16675 5.05585V9.93835C1.16675 12.0675 2.43258 13.3334 4.55591 13.3334H9.43841C11.5617 13.3334 12.8276 12.0675 12.8276 9.94419V5.05585C12.8334 2.93252 11.5676 1.66669 9.44425 1.66669Z" fill="#31D3A3"/>
<path d="M9.76978 4.58331H6.95228C6.71312 4.58331 6.51478 4.78165 6.51478 5.02081C6.51478 5.25998 6.71312 5.45831 6.95228 5.45831H8.71395L4.21062 9.96165C4.04145 10.1308 4.04145 10.4108 4.21062 10.58C4.29812 10.6675 4.40895 10.7083 4.51978 10.7083C4.63062 10.7083 4.74145 10.6675 4.82895 10.58L9.33228 6.07665V7.83831C9.33228 8.07748 9.53062 8.27581 9.76978 8.27581C10.0089 8.27581 10.2073 8.07748 10.2073 7.83831V5.02081C10.2073 4.78165 10.0089 4.58331 9.76978 4.58331Z" fill="#31D3A3"/>
</svg>
