<svg width="14" height="14" viewBox="0 0 14 14" fill="none" xmlns="http://www.w3.org/2000/svg">
<path opacity="0.4" d="M9.44425 1.16669H4.55591C2.43258 1.16669 1.16675 2.43252 1.16675 4.55585V9.43835C1.16675 11.5675 2.43258 12.8334 4.55591 12.8334H9.43841C11.5617 12.8334 12.8276 11.5675 12.8276 9.44419V4.55585C12.8334 2.43252 11.5676 1.16669 9.44425 1.16669Z" fill="#F9BA33"/>
<path d="M9.76978 4.08331H6.95228C6.71312 4.08331 6.51478 4.28165 6.51478 4.52081C6.51478 4.75998 6.71312 4.95831 6.95228 4.95831H8.71395L4.21062 9.46165C4.04145 9.63081 4.04145 9.91081 4.21062 10.08C4.29812 10.1675 4.40895 10.2083 4.51978 10.2083C4.63062 10.2083 4.74145 10.1675 4.82895 10.08L9.33228 5.57665V7.33831C9.33228 7.57748 9.53062 7.77581 9.76978 7.77581C10.0089 7.77581 10.2073 7.57748 10.2073 7.33831V4.52081C10.2073 4.28165 10.0089 4.08331 9.76978 4.08331Z" fill="#F9BA33"/>
</svg>
