<svg width="15" height="14" viewBox="0 0 15 14" fill="none" xmlns="http://www.w3.org/2000/svg">
<path opacity="0.4" d="M9.94425 1.16669H5.05591C2.93258 1.16669 1.66675 2.43252 1.66675 4.55585V9.43835C1.66675 11.5675 2.93258 12.8334 5.05591 12.8334H9.93841C12.0617 12.8334 13.3276 11.5675 13.3276 9.44419V4.55585C13.3334 2.43252 12.0676 1.16669 9.94425 1.16669Z" fill="#1775E4"/>
<path d="M10.2698 4.08331H7.45228C7.21312 4.08331 7.01478 4.28165 7.01478 4.52081C7.01478 4.75998 7.21312 4.95831 7.45228 4.95831H9.21395L4.71062 9.46165C4.54145 9.63081 4.54145 9.91081 4.71062 10.08C4.79812 10.1675 4.90895 10.2083 5.01978 10.2083C5.13062 10.2083 5.24145 10.1675 5.32895 10.08L9.83228 5.57665V7.33831C9.83228 7.57748 10.0306 7.77581 10.2698 7.77581C10.5089 7.77581 10.7073 7.57748 10.7073 7.33831V4.52081C10.7073 4.28165 10.5089 4.08331 10.2698 4.08331Z" fill="#1775E4"/>
</svg>
