<svg width="33" height="32" viewBox="0 0 33 32" fill="none" xmlns="http://www.w3.org/2000/svg">
<path opacity="0.4" d="M17.6868 7.84003H7.3134C5.0334 7.84003 3.16675 9.70667 3.16675 11.9867V27.1334C3.16675 29.0667 4.55341 29.8933 6.24674 28.9467L11.4867 26.0267C12.0467 25.72 12.9534 25.72 13.5001 26.0267L18.7401 28.9467C20.4334 29.8933 21.8201 29.0667 21.8201 27.1334V11.9867C21.8334 9.70667 19.9668 7.84003 17.6868 7.84003Z" fill="#3BBB6E"/>
<path d="M29.8334 6.81333V21.96C29.8334 23.8934 28.4468 24.7067 26.7534 23.7733L21.8334 21.0267V11.9867C21.8334 9.70667 19.9668 7.84003 17.6868 7.84003H11.1667V6.81333C11.1667 4.53333 13.0334 2.66669 15.3134 2.66669H25.6868C27.9668 2.66669 29.8334 4.53333 29.8334 6.81333Z" fill="#3BBB6E"/>
</svg>
